<svg width="60" height="60" viewBox="0 0 60 60" fill="none" xmlns="http://www.w3.org/2000/svg">
<path d="M49.1534 12.5672C49.3015 12.707 49.3104 12.9447 49.1769 13.0986L33.5233 31.1644C33.1562 31.5915 32.6321 31.8158 32.1075 31.8158C31.6732 31.8158 31.2388 31.6661 30.8868 31.359C30.1004 30.6774 30.018 29.4942 30.6923 28.7151L46.3672 10.6174C46.4902 10.4751 46.7014 10.4547 46.8469 10.5741C47.3538 10.9898 48.4765 11.9268 49.1534 12.5672Z" fill="#DD1C1A"/>
<path d="M43.595 46.0321C43.6899 46.1375 43.6748 46.3064 43.5585 46.3878C40.3181 48.6671 36.3633 50 32.1154 50C23.1862 50 15.6103 44.123 13.0451 36.0407C13.0154 35.9469 12.9294 35.8827 12.8303 35.8827H8.6773C8.5704 35.8827 8.47601 35.8097 8.45098 35.7054C8.19285 34.6286 8.00043 33.5231 7.88884 32.3936C7.87528 32.258 7.98427 32.1386 8.12037 32.1386H11.9787C12.1138 32.1386 12.2176 32.0223 12.2035 31.8877C12.1399 31.2656 12.1112 30.6378 12.1112 30.0042C12.1112 29.3263 12.1467 28.6546 12.2171 27.9934C12.2317 27.8583 12.1279 27.742 11.9923 27.742H8.12089C7.98427 27.742 7.8758 27.6226 7.88936 27.487C8.00095 26.3575 8.19338 25.2515 8.4515 24.1746C8.47654 24.0703 8.5704 23.9973 8.67782 23.9973H12.8694C12.9674 23.9973 13.0535 23.9342 13.0837 23.8404C15.6848 15.8181 23.2311 10 32.1154 10C35.2364 10 38.1895 10.7212 40.825 12.0009C40.9611 12.0671 40.9965 12.2475 40.8975 12.3623L36.5656 17.36C36.5056 17.4294 36.4107 17.4544 36.3236 17.4252C35.0012 16.9778 33.5828 16.7405 32.1154 16.7405C27.1009 16.7405 22.7315 19.5356 20.4787 23.6547C20.3953 23.8075 20.5105 23.9973 20.6847 23.9973H26.9345C27.141 23.9973 27.2459 24.2529 27.0925 24.3911C26.1409 25.2452 25.4124 26.346 25.0056 27.5861C24.9754 27.6789 24.8909 27.742 24.7934 27.742H19.246C19.1318 27.742 19.0327 27.8244 19.015 27.9371C18.9086 28.6098 18.8523 29.3007 18.8523 30.0036C18.8523 30.6617 18.9013 31.3068 18.9941 31.9404C19.0108 32.0541 19.1104 32.138 19.2251 32.138H24.7929C24.8904 32.138 24.9749 32.2011 25.0051 32.294C25.4118 33.5345 26.1362 34.6312 27.0879 35.489C27.2412 35.6272 27.1358 35.8827 26.9298 35.8827H20.6138C20.4407 35.8827 20.3249 36.071 20.4062 36.2238C22.6397 40.4049 27.0545 43.26 32.1159 43.26C34.7123 43.26 37.1314 42.507 39.1792 41.209C39.2741 41.1485 39.3972 41.1657 39.4707 41.2513L41.0357 43.0655C41.8163 44.0151 42.6694 45.0038 43.5956 46.0326L43.595 46.0321Z" fill="#DD1C1A"/>
<path d="M52.1117 29.9437C52.1117 30.2806 52.1039 30.6101 52.0893 30.9397C52.0747 31.2766 52.0444 31.6061 52.0147 31.9284C51.9845 32.258 51.9396 32.5875 51.8948 32.9093C51.6101 34.8492 51.0333 36.7291 50.2099 38.489C49.326 40.3517 48.1501 42.0788 46.6962 43.6219C46.6378 43.6839 46.5361 43.6819 46.4798 43.6172L42.2449 38.7294C42.1996 38.6768 42.1996 38.6001 42.2449 38.5469C44.079 36.388 45.2241 33.6227 45.3571 30.6023C45.3644 30.3854 45.3722 30.1606 45.3722 29.9432C45.3722 29.5015 45.3498 29.0593 45.3049 28.6249C45.1433 26.9567 44.6714 25.3532 43.9105 23.8857C43.8839 23.8346 43.8912 23.7741 43.9288 23.7303L48.3357 18.6408C48.3973 18.5693 48.5115 18.5751 48.5652 18.6528C50.6146 21.61 51.8844 25.1336 52.0903 28.9471C52.1055 29.2767 52.1128 29.6063 52.1128 29.9432L52.1117 29.9437Z" fill="#00ADEF"/>
</svg>
